<svg xmlns="http://www.w3.org/2000/svg" style="display: none;"><symbol id="dibujado-a-mano" viewBox="0 0 48.908 48.908"><title>dibujado-a-mano</title><path style="fill:#1D1D1B;" d="M37.294,1.492c0.294-0.315,0.293-0.88-0.243-0.973c-5.175-0.893-11.147-1.009-15.28,2.77 c-3.843,3.513-4.025,9.333-3.166,14.149c-0.021-0.005-0.039-0.016-0.061-0.018c-2.216-0.228-4.63,0.018-6.832,0.313 c-0.337,0.045-0.427,0.409-0.246,0.596c-0.004,0.016-0.018,0.025-0.019,0.042c-0.196,2.521-0.012,5.287,0.313,7.805 c-0.376,0.128-0.341,0.726,0.117,0.752c2.269,0.129,4.833,0.216,7.132-0.071c-0.666,6.883-0.257,14.107-0.165,21.014 c0.002,0.191,0.094,0.32,0.217,0.399c-0.028,0.18,0.067,0.372,0.317,0.392c2.673,0.208,5.803,0.466,8.441-0.08 c0.137-0.028,0.21-0.135,0.251-0.255c0.133-0.025,0.259-0.113,0.276-0.29c0.649-6.772,0.686-13.789,0.272-20.587 c2.418,0.198,5.032-0.049,7.427-0.125c0.085-0.003,0.157-0.022,0.219-0.051c0.274,0.096,0.645-0.056,0.63-0.414 c-0.056-1.366-0.246-2.723-0.3-4.091c-0.053-1.344-0.287-3.08-0.019-4.391c0.034-0.168-0.114-0.317-0.264-0.298 c-0.053-0.1-0.149-0.177-0.305-0.203c-2.43-0.399-5.1-0.419-7.569-0.331c-0.266-1.511-0.48-3.663-0.065-5.4 c0.025-0.026,0.034-0.059,0.022-0.09c0.193-0.759,0.497-1.442,0.997-1.935c0.313-0.309,0.696-0.528,1.106-0.707 c0.111-0.004,0.222-0.004,0.333-0.009c0.1-0.005,0.126-0.106,0.087-0.171c1.686-0.557,3.864-0.35,5.459-0.34 c0.367,0.002,0.51-0.291,0.461-0.56c0.089-0.039,0.168-0.099,0.2-0.203C37.645,6.176,37.666,3.554,37.294,1.492z M28.714,9.139 c-1.473-0.002-2.952,0.044-4.417,0.07c-0.107,0.002-0.107,0.165,0,0.167c1.357,0.025,2.725,0.064,4.089,0.069 c-0.02,0.024-0.048,0.039-0.068,0.063c-0.606,0.749-0.94,1.678-1.088,2.674c-1.18,0.186-2.334,0.282-3.563,0.182 c-0.089-0.007-0.085,0.126,0,0.137c1.145,0.149,2.37,0.165,3.533-0.041c-0.106,0.93-0.068,1.906,0.061,2.848 c-1.409-0.029-2.822,0.011-4.23,0.023c-0.098,0.001-0.098,0.151,0,0.152c1.416,0.012,2.839,0.053,4.256,0.023 c0.123,0.813,0.301,1.595,0.504,2.284c-0.01,0.017-0.008,0.038-0.016,0.056c-1.712-0.089-3.453-0.007-5.166,0.022 c-0.088,0.002-0.088,0.136,0,0.137c1.696,0.029,3.42,0.108,5.116,0.024c-0.007,0.248,0.156,0.508,0.485,0.545 c2.425,0.275,5.08,0.472,7.522,0.273c-0.304,0.705-0.304,1.537-0.281,2.334c-4.493-0.545-8.986-0.535-13.483-0.035 c-0.112,0.012-0.114,0.188,0,0.177c4.518-0.418,8.986-0.338,13.492,0.173c0.003,0.108,0.007,0.219,0.009,0.325 c0.009,0.474,0.034,0.953,0.06,1.432c-3.604,0.044-7.212,0.138-10.813,0.272c-0.089,0.003-0.09,0.139,0,0.139 c3.606,0,7.218-0.041,10.824-0.13c0.044,0.687,0.106,1.373,0.207,2.052c-4.518-0.055-9.044-0.001-13.561,0.081 c-0.091,0.002-0.091,0.14,0,0.141c4.533,0.083,9.075,0.137,13.609,0.081c0.023,0.14,0.04,0.281,0.067,0.42 c-2.335-0.191-5.107-0.23-7.417,0.403c-0.263-0.243-0.782-0.142-0.789,0.323c0,0.027-0.001,0.054-0.001,0.081 c-0.001,0.02-0.005,0.037-0.001,0.057c-0.005,0.315-0.003,0.632-0.005,0.948c-1.195-0.053-2.41,0.021-3.596,0.123 c-0.468,0.04-1.481-0.062-1.786,0.373c-0.015,0.022-0.01,0.06,0.01,0.077c0.031,0.027,0.062,0.053,0.093,0.08 c0.022,0.019,0.056,0.022,0.078,0c0.021-0.022,0.043-0.044,0.064-0.065c0.037-0.038-0.014-0.111-0.059-0.076 c0.248-0.192,1.045-0.112,1.389-0.136c0.495-0.033,0.989-0.061,1.485-0.078c0.774-0.026,1.548-0.012,2.322-0.02 c-0.002,0.554-0.007,1.106-0.008,1.66c-1.533-0.036-3.079,0.01-4.61,0.043c-0.081,0.002-0.082,0.125,0,0.127 c1.531,0.033,3.076,0.079,4.609,0.043c-0.002,0.775-0.011,1.549-0.012,2.324c-1.4,0.209-2.757,0.369-4.18,0.3 c-0.097-0.005-0.095,0.143,0,0.15c1.386,0.101,2.816,0.071,4.179-0.238c-0.001,0.633-0.009,1.265-0.01,1.898 c-2.113,0.325-4.138,0.521-6.281,0.297c-0.095-0.01-0.092,0.136,0,0.148c2.065,0.271,4.237,0.29,6.28-0.191 c0,0.677-0.012,1.351-0.01,2.028c-1.384,0.042-2.774,0.171-4.154,0.255c-0.102,0.006-0.104,0.164,0,0.16 c1.38-0.055,2.774-0.064,4.154-0.161c0.001,0.537-0.002,1.073,0.001,1.609c-1.944-0.001-3.899,0.059-5.841,0.095 c-0.078,0.001-0.077,0.115,0,0.12c1.917,0.134,3.909,0.177,5.841,0.047c0.003,0.513-0.001,1.026,0.003,1.539 c-1.455,0.036-2.916,0.165-4.367,0.247c-0.081,0.005-0.082,0.13,0,0.126c1.451-0.054,2.917-0.062,4.368-0.162 c0.006,0.771,0.001,1.543,0.012,2.314c-1.389,0.031-2.785,0.164-4.169,0.246c-0.087,0.005-0.089,0.141,0,0.137 c1.384-0.056,2.787-0.063,4.172-0.17c0.01,0.73,0.016,1.461,0.031,2.19c-1.683-0.001-3.36,0.128-5.047,0.1 c-0.085-0.001-0.083,0.124,0,0.131c1.646,0.133,3.412,0.205,5.05-0.05c0.014,0.67,0.02,1.341,0.038,2.01 c-2.477-0.408-5.333-0.129-7.851,0.144c0.001-0.016,0.009-0.027,0.009-0.044c0.075-7.085,0.59-14.444,0.016-21.499 c-0.039-0.476-0.618-0.517-0.781-0.146c-2.167-0.279-4.57-0.218-6.75-0.101c0.342-2.459,0.287-5.269-0.339-7.668 c2.176,0.148,4.519,0.21,6.662-0.146c0.213-0.035,0.309-0.173,0.323-0.329c0.196,0.001,0.403-0.129,0.401-0.362 c-0.038-4.59-0.866-9.64,2.836-13.179c3.838-3.669,9.38-3.477,14.26-2.775c-0.07,0.3-0.117,0.626-0.169,0.946 c-1.667-0.236-3.383-0.278-5.059-0.401c-0.119-0.009-0.116,0.172,0,0.184c1.66,0.166,3.344,0.42,5.013,0.474 c-0.086,0.585-0.151,1.184-0.176,1.791c-3.269-0.446-6.615-0.455-9.899-0.259c-0.083,0.005-0.085,0.133,0,0.131 c3.325-0.095,6.586,0.129,9.891,0.4c-0.025,1.032,0.043,2.057,0.237,2.966C34.074,7.665,30.575,7.44,28.714,9.139z"/><path style="fill:#1D1D1B;" d="M35.885,7.321c-3.358-0.385-6.734-0.674-10.102-0.95c-0.1-0.008-0.096,0.142,0,0.154 c3.36,0.401,6.731,0.792,10.102,1.085C36.072,7.627,36.066,7.342,35.885,7.321z"/></symbol><symbol id="redes-sociales" viewBox="0 0 49.721 49.721"><title>redes-sociales</title><path style="fill:#1D1D1B;" d="M49.173,9.152c-1.669-0.045-3.264,0.241-4.769,0.892c0.116-0.199,0.217-0.407,0.325-0.611 c0.145,0.001,0.212-0.167,0.133-0.25c0.663-1.303,1.208-2.679,1.951-3.932c0.161-0.272-0.104-0.55-0.383-0.499 c-1.27,0.235-2.48,0.684-3.683,1.144c-0.878,0.335-1.864,0.623-2.614,1.203c-0.01-0.012-0.015-0.025-0.028-0.036 c-6.732-5.901-19.595-0.502-16.59,9.089c-0.019-0.004-0.033-0.014-0.053-0.017c-7.55-0.982-13.452-3.885-18.774-9.347 C4.427,6.519,3.968,6.77,3.965,7.08C3.808,7.019,3.628,7.052,3.524,7.259c-1.538,3.072-1.585,9.065,1.313,11.59 c-0.121-0.001-0.242-0.001-0.364-0.009c-0.646-0.039-1.26-0.17-1.896-0.261c-0.376-0.054-0.697,0.439-0.368,0.677 c-0.061,0.058-0.105,0.138-0.114,0.24c-0.278,3.285,2.164,7.37,5.198,9.069c-0.17,0.019-0.339,0.037-0.508,0.047 c-0.718,0.042-1.438,0.045-2.155,0.087c-0.308,0.018-0.469,0.355-0.381,0.594c-0.043,0.084-0.056,0.188-0.016,0.307 c0.632,1.88,2.193,3.404,3.752,4.565c1.057,0.788,2.617,2.051,4.092,2.3c-1.625,0.461-3.165,1.131-4.846,1.441 c-2.083,0.384-4.158,0.369-6.265,0.27c-0.211-0.01-0.299,0.208-0.247,0.375c-0.113-0.082-0.233-0.156-0.344-0.24 c-0.245-0.185-0.498,0.199-0.313,0.406c6.255,7,20.476,7.944,28.639,4.347c7.061-3.11,11.646-9.018,14-15.884 c0.048-0.035,0.063-0.089,0.048-0.145c1.256-3.721,1.871-7.713,1.848-11.702c-0.001-0.144-0.052-0.254-0.119-0.346 c0.976-0.457,1.861-1.298,2.609-2.023c0.948-0.918,1.786-1.931,2.548-3.006C49.883,9.612,49.549,9.162,49.173,9.152z M46.38,12.028 c-4.752-0.293-9.542-0.238-14.296-0.097c-0.099,0.003-0.099,0.154,0,0.154c4.665-0.018,9.32,0.147,13.981,0.228 c-0.775,0.671-1.697,1.238-2.372,1.991c-4.991-0.104-9.999,0.086-14.982,0.342c-0.074,0.004-0.075,0.118,0,0.116 c4.942-0.129,9.88-0.104,14.821-0.15c-0.011,0.088-0.002,0.179,0.027,0.262c-0.125,0.1-0.21,0.252-0.204,0.462 c0.038,1.32-0.015,2.637-0.134,3.945c-1.498,0.072-5.808-0.324-6.498-0.314c-2.605,0.036-5.215,0.159-7.799,0.501 c-0.086,0.011-0.092,0.144,0,0.139c3.348-0.175,6.676-0.395,10.031-0.337c0.861,0.015,3.014,0.49,4.241,0.261 c-0.077,0.782-0.172,1.561-0.302,2.333c-0.02-0.01-0.033-0.026-0.06-0.026c-3.162-0.03-6.326,0.004-9.488,0.024 c-0.109,0.001-0.109,0.167,0,0.169c3.162,0.05,6.326,0.115,9.488,0.115c0.009,0,0.012-0.007,0.02-0.009 c-0.138,0.781-0.301,1.555-0.494,2.32c-4.569-0.638-9.267-0.614-13.864-0.37c-0.085,0.004-0.086,0.135,0,0.133 c4.632-0.128,9.185,0.182,13.8,0.475c-0.195,0.746-0.408,1.486-0.656,2.212c-2.902-0.078-5.832,0.112-8.713,0.386 c-0.103,0.01-0.106,0.169,0,0.162c2.87-0.179,5.728-0.186,8.596-0.223c-0.318,0.898-0.664,1.783-1.064,2.64 c-4.48,0.085-8.961,0.178-13.44,0.316c-0.096,0.003-0.097,0.15,0,0.15c4.43-0.015,8.861-0.074,13.291-0.142 c-0.296,0.613-0.611,1.216-0.95,1.803c-0.02-0.033-0.051-0.059-0.105-0.058c-3.444,0.069-6.906,0.472-10.34,0.748 c-0.108,0.009-0.111,0.177,0,0.171c3.433-0.188,6.911-0.257,10.327-0.649c-0.558,0.946-1.153,1.869-1.828,2.733 c-0.021-0.01-0.036-0.027-0.065-0.026c-4.778,0.115-9.556,0.206-14.336,0.27c-0.105,0.001-0.105,0.161,0,0.162 c4.713,0.057,9.427,0.028,14.138-0.087c-0.921,1.14-1.94,2.204-3.072,3.164c0.016-0.066-0.015-0.143-0.105-0.148 c-3.629-0.229-7.343,0.076-10.955,0.44c-0.082,0.008-0.085,0.137,0,0.131c3.652-0.246,7.294-0.2,10.947-0.332 c-0.838,0.701-1.724,1.356-2.677,1.943c-0.019-0.015-0.037-0.032-0.066-0.034c-4.749-0.435-9.559-0.407-14.314-0.101 c-0.073,0.005-0.074,0.116,0,0.114c4.689-0.134,9.334,0.004,14.015,0.239c-0.865,0.511-1.761,0.989-2.72,1.396 c-4.526-0.236-9.093-0.133-13.624-0.134c-0.103,0-0.103,0.158,0,0.16c4.34,0.112,8.71,0.314,13.054,0.226 c-0.025,0.01-0.047,0.022-0.072,0.032c-8.212,3.197-19.361,1.463-26.57-3.612c3.747,0.82,8.739,0.426,11.82-2.039 c0.077-0.061,0.078-0.142,0.052-0.216c0.068-0.008,0.139,0,0.207-0.015c0.21-0.045,0.202-0.367,0-0.417 c-1.42-0.35-3.129-1.866-4.298-2.729c-1.46-1.077-2.49-2.249-3.486-3.703c0.497,0.057,0.997,0.09,1.497,0.078 c0.696-0.017,1.441-0.001,2.063-0.339c0.167-0.091,0.23-0.278,0.205-0.451c0.056-0.127,0.058-0.275-0.067-0.381 c-1.475-1.251-2.962-2.255-4.063-3.893c-1.091-1.622-1.515-3.324-2.102-5.139c0.422,0.141,0.857,0.248,1.293,0.304 c0.586,0.075,1.349,0.174,1.852-0.184c0.183-0.131,0.234-0.428,0.028-0.565c-0.012-0.02-0.008-0.041-0.026-0.06 c-2.94-3.03-2.29-7.671-1.703-11.417c4.527,5.731,11.874,9.49,19.196,9.59c0.365,0.005,0.517-0.265,0.487-0.531 c0.175-0.024,0.334-0.176,0.291-0.41c-0.701-3.837,0.879-7.836,4.415-9.731c2.789-1.495,5.972-1.069,8.8,0.064 c-1.581,0.064-3.163,0.148-4.74,0.239c-0.108,0.006-0.109,0.171,0,0.169c1.777-0.036,3.558-0.08,5.335-0.157 c0.56,0.248,1.105,0.518,1.626,0.807c0.091,0.051,0.186,0.051,0.271,0.023c0.058,0.069,0.132,0.124,0.228,0.125 c1.128,0.012,2.274-0.575,3.32-0.966c0.767-0.287,1.526-0.582,2.261-0.935c-0.55,1.068-1.183,2.101-1.716,3.177 c-3.154-0.388-6.31-0.276-9.432,0.365c-0.09,0.019-0.051,0.151,0.038,0.136c3.112-0.502,6.14-0.555,9.245-0.19 c-0.16,0.34-0.314,0.684-0.443,1.037c-0.018,0.049-0.023,0.094-0.02,0.135c-0.212,0.224,0,0.684,0.338,0.564 c1.393-0.496,2.818-0.799,4.28-0.858C47.523,10.86,46.974,11.465,46.38,12.028z"/><path style="fill:#1D1D1B;" d="M43.045,17.053c-3.373,0.009-6.747,0.038-10.12,0.085c-0.081,0.001-0.082,0.125,0,0.127 c3.373,0.047,6.747,0.076,10.12,0.085C43.237,17.351,43.237,17.053,43.045,17.053z"/></symbol><symbol id="redes-sociales-1" viewBox="0 0 49.745 49.745"><title>redes-sociales-1</title><path style="fill:#1D1D1B;" d="M12.832,6.387c-0.12,0.01-0.24,0.017-0.36,0.027c-0.104-3.697-3.148-7.6-7.109-6.074 c-0.083-0.033-0.172-0.05-0.27-0.028c-3.152,0.706-5.131,4.34-4.171,7.394c1.071,3.409,4.84,5.054,8.143,3.914 c2.42-0.835,3.417-2.893,3.406-5.049c0.127-0.015,0.255-0.022,0.381-0.04C12.933,6.521,12.915,6.38,12.832,6.387z M11.327,6.496 C9.932,6.582,8.542,6.618,7.136,6.549c-0.092-0.004-0.092,0.138,0,0.143C8.52,6.77,9.913,6.782,11.297,6.686 c-0.078,0.544-0.213,1.077-0.448,1.562C9.26,8.235,7.669,8.26,6.081,8.27c-0.067,0-0.067,0.103,0,0.103 c1.561,0.01,3.124,0.034,4.686,0.023c-0.169,0.32-0.364,0.624-0.602,0.894C8.091,9.312,6.039,9.323,3.968,9.151 c-0.09-0.007-0.088,0.13,0,0.139c2.003,0.199,4.04,0.297,6.051,0.151c-0.526,0.54-1.193,0.949-2.001,1.142 C5.445,11.199,2.686,9.71,1.99,7.115c-0.737-2.746,1.154-4.87,3.474-5.926C5.488,1.177,5.501,1.16,5.521,1.147 c1.77-0.243,3.61,0.239,4.746,1.564c-1.774-0.21-3.585-0.14-5.365-0.108c-0.07,0.001-0.071,0.109,0,0.11 c1.852,0.021,3.685,0.043,5.526,0.216c0.263,0.35,0.495,0.737,0.653,1.195c0.052,0.149,0.089,0.302,0.126,0.454 c-1.64,0.099-3.254,0.07-4.889-0.167c-0.09-0.013-0.13,0.124-0.038,0.138c1.647,0.262,3.307,0.339,4.966,0.18 C11.369,5.312,11.39,5.911,11.327,6.496z"/><path style="fill:#1D1D1B;" d="M5.833,17.003c1.531,0.009,3.055,0.134,4.584,0.171c0.573,0.014,0.731-0.934,0.139-1.025 c-2.68-0.414-6.119-0.706-8.739,0.125c-0.115,0.037-0.181,0.144-0.207,0.257c-0.205-0.069-0.478,0.047-0.509,0.336 c-1.133,10.353-0.829,21.099-0.704,31.505c0,0.036,0.014,0.063,0.02,0.095c-0.08,0.203,0.034,0.489,0.323,0.524 c3.007,0.367,6.495,1.003,9.506,0.604c0.419-0.056,0.592-0.673,0.108-0.798c-2.762-0.709-6.042-0.574-8.944-0.541 c0.035-10.429,0.722-20.945,0.429-31.36C3.155,17.104,4.502,16.995,5.833,17.003z"/><path style="fill:#1D1D1B;" d="M10.885,17.044c-0.019,0.426-0.043,0.86-0.064,1.29c-2.181-0.401-4.444-0.419-6.645-0.262 c-0.078,0.005-0.079,0.127,0,0.122c2.249-0.123,4.416,0.072,6.635,0.328c-0.039,0.781-0.076,1.561-0.116,2.345 c-1.816-0.118-3.636-0.192-5.452-0.281c-0.099-0.005-0.098,0.148,0,0.154c1.812,0.112,3.628,0.238,5.443,0.321 c-0.036,0.71-0.069,1.415-0.105,2.125c-1.357-0.044-2.721-0.006-4.078,0.011c-0.121,0.002-0.121,0.186,0,0.188 c1.353,0.017,2.715,0.055,4.068,0.011c-0.051,0.996-0.098,1.98-0.148,2.978c-1.377-0.019-2.755,0.002-4.131,0.01 c-0.09,0-0.09,0.139,0,0.139c1.373,0.008,2.749,0.028,4.123,0.01c-0.036,0.719-0.075,1.434-0.108,2.154 c-1.551-0.072-3.112-0.005-4.657,0.13c-0.076,0.007-0.078,0.126,0,0.12c1.554-0.116,3.096-0.111,4.649-0.079 c-0.03,0.649-0.068,1.296-0.094,1.945c-2.077-0.044-4.156-0.036-6.232-0.043c-0.09,0-0.09,0.138,0,0.139 c2.074,0.029,4.151,0.075,6.226,0.067c-0.039,1.006-0.08,2.011-0.106,3.017c-0.004-0.001-0.002-0.007-0.007-0.007 c-1.696-0.009-3.372-0.034-5.058-0.228c-0.092-0.011-0.09,0.132,0,0.143c1.675,0.208,3.372,0.331,5.058,0.218 c0.003,0,0.002-0.005,0.005-0.005c-0.028,1.149-0.063,2.299-0.064,3.446c-1.385-0.028-2.773-0.004-4.157-0.001 c-0.1,0-0.101,0.156,0,0.156c1.385,0.003,2.773,0.028,4.158-0.001c0,0.757,0.001,1.513,0.015,2.268 c-1.954,0.006-3.907,0.056-5.86,0.093c-0.06,0.001-0.06,0.093,0,0.093c1.954-0.021,3.909-0.029,5.862-0.08 c0.011,0.555,0.015,1.111,0.035,1.665c-1.19-0.091-2.384-0.15-3.576-0.219c-0.102-0.006-0.101,0.152,0,0.158 c1.194,0.079,2.389,0.168,3.584,0.224c0.038,1.016,0.085,2.032,0.158,3.044c-1.254,0.019-2.495,0.004-3.753-0.139 c-0.07-0.008-0.069,0.101,0,0.11c1.242,0.149,2.508,0.232,3.762,0.176c0.108,1.46,0.252,2.915,0.446,4.361 c0.06,0.448,0.806,0.34,0.787-0.106c-0.404-9.458,0.007-18.873,0.367-28.316c0-0.005,0.001-0.008,0.001-0.013 c0.05-1.325,0.1-2.651,0.146-3.978C12.028,16.324,10.917,16.327,10.885,17.044z"/><path style="fill:#1D1D1B;" d="M44.638,18.607c-4.975-5.293-13.881-4.571-17.608,1.701c0.117-0.468,0.144-0.964,0.184-1.441 c0.041-0.487,0.163-1.032,0.085-1.523c0.327-0.08,0.429-0.584,0.041-0.67c-3.044-0.671-6.657-1.086-9.756-0.858 c-0.373,0.028-0.563,0.455-0.415,0.726c-0.485,0.994-0.31,2.172-0.342,3.282c-0.092,3.201-0.038,6.412-0.042,9.614 c-0.007,6.089-0.009,12.177-0.039,18.266c0,0.071,0.017,0.129,0.037,0.185c-0.246,0.196-0.247,0.59,0.039,0.757 c1.275,0.744,2.712,0.638,4.148,0.641c1.884,0.005,3.872,0.207,5.724-0.163c0.417-0.083,0.418-0.761,0-0.844 c-2.918-0.578-6.004,0.246-8.918-0.354c0.028-0.064,0.045-0.138,0.045-0.223c0.002-5.127,0.024-10.254,0.046-15.382 c0.011-2.564,0.027-5.127,0.032-7.691c0.002-0.881-0.486-6.402-0.073-7.817c2.692,0.565,5.796,0.724,8.579,0.597 c-0.091,0.303-0.111,0.633-0.127,0.956c-1.953-0.018-3.906,0.002-5.859,0.016c-0.075,0-0.075,0.115,0,0.116 c1.95,0.014,3.901,0.034,5.851,0.016c-0.004,0.073-0.008,0.151-0.013,0.222c-0.047,0.624-0.087,1.274,0.097,1.879 c0.069,0.225,0.306,0.268,0.465,0.161c0.027,0.26,0.357,0.462,0.574,0.222c5.142-5.669,11.543-5.492,15.716-1.413 c-2.711-0.237-5.426-0.438-8.138-0.637c-0.104-0.008-0.102,0.151,0,0.16c2.797,0.259,5.599,0.517,8.401,0.734 c0.673,0.7,1.289,1.493,1.82,2.396c-2.674-0.441-5.408-0.682-8.1-0.884c-0.082-0.006-0.079,0.118,0,0.127 c2.75,0.303,5.494,0.704,8.244,1.003c0.413,0.735,0.777,1.528,1.079,2.382c-2.489-0.085-4.944-0.252-7.417-0.629 c-0.095-0.015-0.137,0.13-0.04,0.146c2.484,0.419,5.007,0.677,7.528,0.681c0.192,0.565,0.36,1.152,0.498,1.764 c0.075,0.331,0.122,0.663,0.185,0.994c-2.037-0.082-4.024-0.351-6.01-0.825c-0.054-0.013-0.11,0.062-0.059,0.102 c0.192,0.147,0.382,0.299,0.567,0.454c0.052,0.043,0.127-0.032,0.075-0.075c-0.684-0.561,0.428-0.095,0.702-0.035 c0.59,0.129,1.184,0.236,1.781,0.322c0.988,0.143,1.983,0.223,2.981,0.252c0.206,1.123,0.37,2.246,0.473,3.369 c-1.282-0.152-2.57-0.256-3.855-0.376c-0.069-0.006-0.068,0.1,0,0.108c1.287,0.139,2.576,0.296,3.867,0.403 c0.079,0.891,0.14,1.783,0.171,2.674c-1.277-0.127-2.559-0.215-3.838-0.318c-0.072-0.006-0.071,0.106,0,0.112 c1.28,0.11,2.56,0.236,3.842,0.322c0.036,1.087,0.047,2.174,0.039,3.263c-1.15,0.001-2.288-0.057-3.434-0.228 c-0.076-0.011-0.108,0.104-0.032,0.116c1.148,0.177,2.305,0.269,3.465,0.243c-0.007,0.866-0.021,1.732-0.04,2.6 c-0.997,0.011-1.982-0.036-2.975-0.199c-0.074-0.012-0.107,0.1-0.031,0.114c0.993,0.177,1.997,0.266,3.003,0.233 c-0.017,0.795-0.035,1.59-0.05,2.387c-1.467-0.163-2.944-0.267-4.414-0.394c-0.072-0.006-0.071,0.105,0,0.112 c1.469,0.143,2.939,0.311,4.411,0.418c-0.016,0.865-0.027,1.731-0.026,2.598c-2.175,0.005-4.305-0.097-6.474-0.433 c-0.055-0.009-0.08,0.075-0.024,0.085c2.136,0.386,4.324,0.578,6.498,0.499c0.002,0.707,0.011,1.414,0.033,2.122 c0.001,0.027,0.01,0.045,0.015,0.069c-2.653-0.936-6.12-0.538-8.964-0.144c0.096-5.703,0.648-11.711,0.046-17.364 c-0.325-3.059-1.398-5.345-4.568-5.982c-0.051-0.01-0.099-0.004-0.146,0.01c-3.162-1.099-5.138,0.343-6.336,2.991 c-0.932-0.038-1.875,0.003-2.807,0.019c-0.076,0.001-0.076,0.117,0,0.118c0.909,0.016,1.828,0.053,2.738,0.02 c-0.335,0.773-0.611,1.638-0.828,2.575c-0.71,0.03-1.418,0.088-2.127,0.124c-0.045,0.002-0.045,0.071,0,0.07 c0.697-0.023,1.395-0.025,2.092-0.053c-0.227,1.013-0.393,2.1-0.509,3.224c-1.028-0.049-2.061,0.053-3.072,0.235 c-0.083,0.015-0.047,0.139,0.035,0.126c1.011-0.164,2.007-0.196,3.02-0.193c-0.1,1.026-0.164,2.078-0.19,3.132 c-1.163,0.109-2.307,0.171-3.476,0.083c-0.081-0.006-0.08,0.12,0,0.126c1.156,0.097,2.325,0.098,3.473-0.086 c-0.019,0.83-0.018,1.659-0.001,2.472c-0.513,0.095-1.032,0.109-1.559,0.032c-0.072-0.01-0.103,0.099-0.03,0.11 c0.544,0.082,1.068,0.075,1.591-0.028c0.026,1.144,0.084,2.255,0.16,3.296c-0.935,0.007-1.852-0.038-2.776-0.207 c-0.079-0.014-0.114,0.107-0.034,0.122c0.93,0.177,1.874,0.266,2.82,0.215c0.059,0.788,0.129,1.537,0.205,2.223 c-1.003,0.059-2.004,0.131-3.007,0.203c-0.071,0.005-0.072,0.116,0,0.112c1.007-0.063,2.014-0.126,3.02-0.202 c0.086,0.767,0.179,1.46,0.271,2.046c-1.808,0.066-3.592-0.019-5.382-0.313c-0.041-0.007-0.059,0.056-0.017,0.063 c1.795,0.316,3.596,0.44,5.415,0.345c0.085,0.534,0.17,0.988,0.247,1.321c0.063,0.273,0.49,0.212,0.487-0.066 c-0.061-5.107-2.972-26.137,7.095-23.341c5.176,3.442,3.028,17.475,3.043,22.881c0.001,0.461,0.462,0.616,0.787,0.474 c1.484-0.04,2.972-0.051,4.455,0.002c1.546,0.055,3.215,0.352,4.743,0.15c0.361-0.048,0.532-0.386,0.427-0.653 c0.178-0.003,0.363-0.127,0.394-0.36C49.677,39.565,50.954,25.327,44.638,18.607z"/><path style="fill:#1D1D1B;" d="M9.859,46.631c-1.892,0.345-3.754,0.493-5.675,0.427c-0.071-0.002-0.07,0.104,0,0.11 c1.916,0.144,3.836,0.016,5.711-0.404C9.982,46.744,9.945,46.616,9.859,46.631z"/></symbol><symbol id="fotografia" viewBox="0 0 51.535 51.535"><title>fotografia</title><path style="fill:#1D1D1B;" d="M38.772,3.943c-7.948-6.317-19.463-4.628-26.609,2.104C6.12,11.741,3.737,21.63,9.583,28.058 c0.225,0.337,0.508,0.63,0.837,0.863c0.025,0.023,0.044,0.048,0.069,0.071c0.066,0.06,0.135,0.084,0.201,0.092 c0.985,0.568,2.23,0.643,3.197-0.116c0.565-0.444,0.98-1.147,1.026-1.873c0.037-0.587-0.215-1.055-0.492-1.523 c0.061-0.108,0.083-0.243,0.019-0.386c-4.469-9.941,5.164-21.16,15.456-15.449c3.773,2.094,5.967,6.123,6.105,10.402 c0.069,2.143-0.362,4.41-1.346,6.334c-0.518,1.038-1.185,1.973-2.002,2.808c-2.383,2.592-5.152,2.18-8.302-1.218 c1.308-3.801,5.749-15.692-1.245-15.578c-5.152,0.084-9.376,8.149-4.983,11.712c-1.959,4.833-3.091,10.034-3.778,15.189 c-0.477,3.58-1.588,8.447,0.553,11.651c-0.062,0.367,0.445,0.685,0.748,0.375c2.452-2.505,4.217-5.747,5.545-8.969 c0.794-1.927,1.877-4.436,1.965-6.742c6.21,4.494,16.882-0.709,19.9-6.943C46.936,20.742,45.994,9.684,38.772,3.943z M39.337,31.089c-1.472,0.138-2.881,0.14-4.386-0.187c-0.083-0.018-0.119,0.108-0.035,0.128c1.331,0.323,2.742,0.489,4.118,0.364 c-0.541,0.541-1.114,1.054-1.724,1.521c-0.015-0.007-0.025-0.019-0.045-0.019c-5.832-0.027-11.667-0.022-17.499,0.042 c-0.11,0.001-0.11,0.17,0,0.171c5.741,0.063,11.484,0.069,17.226,0.043c-4.097,2.984-9.479,4.123-13.913,1.218 c-0.05-0.31-0.119-0.615-0.222-0.909c-0.084-0.24-0.432-0.201-0.445,0.06c-0.017,0.326-0.047,0.649-0.08,0.971 c-0.082,0.132-0.115,0.292-0.051,0.438c-0.013,0.1-0.035,0.198-0.049,0.298c-1.098-0.044-2.213,0.018-3.308,0.03 c-0.11,0.001-0.11,0.17,0,0.171c1.082,0.012,2.184,0.073,3.27,0.032c-0.112,0.712-0.255,1.415-0.439,2.106 c-0.018-0.037-0.047-0.068-0.095-0.064c-1.9,0.144-3.798,0.466-5.687,0.717c-0.101,0.013-0.105,0.174,0,0.163 c1.902-0.204,3.83-0.34,5.718-0.649c0.013-0.002,0.018-0.013,0.028-0.019c-0.247,0.9-0.549,1.784-0.893,2.653 c-0.987,0.112-1.948,0.223-2.955,0.176c-0.085-0.004-0.083,0.124,0,0.131c0.94,0.074,1.93,0.084,2.872-0.081 c-0.258,0.637-0.537,1.267-0.836,1.888c-1.388,0.132-2.785,0.417-4.156,0.647c-0.079,0.013-0.061,0.151,0.019,0.141 c1.329-0.165,2.694-0.289,4.015-0.539c-0.367,0.748-0.757,1.487-1.166,2.216c-0.892,0.103-1.785,0.296-2.665,0.441 c-0.088,0.015-0.049,0.144,0.036,0.132c0.822-0.111,1.667-0.184,2.49-0.325c-0.318,0.559-0.642,1.114-0.975,1.663 c-0.705,0.185-1.391,0.303-2.167,0.238c-0.102-0.009-0.099,0.147,0,0.158c0.635,0.074,1.324,0.058,1.975-0.083 c-0.646,1.053-1.31,2.09-1.967,3.112c-1.535-4.325-0.031-11.036,0.753-15.17c0.749-3.946,1.987-7.72,3.073-11.578 c0.108-0.384-0.497-0.668-0.665-0.28c-0.031,0.071-0.057,0.144-0.087,0.215c-1.071-2.01-1.223-4.201-0.084-6.307 c1.27-2.346,6.804-6.466,7.679-0.09c0.225,1.643-0.765,3.887-1.168,5.472c-0.486,1.91-1.017,3.815-1.374,5.754 c-0.029,0.159,0.029,0.282,0.12,0.365c0.145,4.991,7.1,4.3,9.972,1.529c0.543-0.524,1.019-1.101,1.445-1.711 c2.154-0.058,4.334-0.036,6.482-0.211C40.889,29.268,40.164,30.219,39.337,31.089z M38.952,20.234 c1.564,0.095,3.195,0.164,4.76-0.03c-0.11,1.543-0.362,3.088-0.745,4.598c-0.284,1.117-0.747,2.214-1.352,3.26 c-2.16-0.023-4.337,0.162-6.495,0.268c2.811-4.163,2.961-10.023,0.572-14.424c2.412,0.012,4.935-0.062,7.298-0.557 c0.102-0.021,0.081-0.193-0.025-0.184c-2.465,0.21-4.882,0.528-7.361,0.593c-0.325-0.58-0.69-1.136-1.104-1.656 C25.088,0.285,6.356,11.793,13.535,25.199c-0.015,0.216,0.045,0.437,0.129,0.687c0.202,0.6,0.351,1.09-0.04,1.672 c-0.855,1.275-2.413,0.601-3.326-0.22c-0.068-0.061-0.144-0.092-0.221-0.111C0.838,12.96,19.318-3.081,33.618,2.504 c-2.792,0.01-5.588,0.113-8.37,0.309c-0.097,0.007-0.098,0.156,0,0.152c3.027-0.122,6.045-0.16,9.071-0.15 c0.701,0.312,1.395,0.661,2.069,1.084c0.569,0.357,1.087,0.75,1.583,1.158c-2.425-0.06-4.866,0.158-7.263,0.488 c-0.09,0.012-0.069,0.171,0.022,0.16c2.521-0.309,5.018-0.366,7.551-0.387c0.809,0.704,1.531,1.465,2.15,2.287 c-2.558-0.059-5.134,0.285-7.613,0.89c-0.093,0.023-0.053,0.162,0.039,0.142c2.584-0.553,5.13-0.752,7.76-0.788 c1.872,2.599,2.842,5.708,3.085,8.958c-1.518,0.034-3.015,0.148-4.538,0.094c-0.101-0.004-0.099,0.149,0,0.156 c1.492,0.111,3.064,0.17,4.551-0.049c0.064,0.977,0.071,1.964,0.01,2.955c-1.593,0.03-3.172,0.151-4.772,0.09 C38.835,20.048,38.836,20.227,38.952,20.234z"/><path style="fill:#1D1D1B;" d="M34.74,34.256c-2.252,0.077-4.51,0.358-6.755,0.554c-0.098,0.009-0.1,0.161,0,0.154 c2.247-0.147,4.519-0.214,6.755-0.48C34.882,34.467,34.891,34.251,34.74,34.256z"/><path style="fill:#1D1D1B;" d="M42.324,25.972c-1.335,0.075-2.673,0.31-4,0.477c-0.107,0.014-0.11,0.183,0,0.171 c1.337-0.145,2.701-0.228,4.025-0.466C42.451,26.136,42.428,25.967,42.324,25.972z"/><path style="fill:#1D1D1B;" d="M42.957,23.238c-1.528-0.118-3.106-0.02-4.638,0.01c-0.099,0.002-0.099,0.152,0,0.154 c1.532,0.031,3.111,0.129,4.638,0.011C43.069,23.404,43.069,23.247,42.957,23.238z"/><path style="fill:#1D1D1B;" d="M41.899,10.771c-1.995,0.224-3.885,0.327-5.882,0.038c-0.066-0.009-0.096,0.09-0.028,0.102 c1.952,0.337,3.983,0.441,5.935,0.051C42.031,10.941,42.009,10.759,41.899,10.771z"/></symbol><symbol id="instagram-bosquejado" viewBox="0 0 49.585 49.585"><title>instagram-bosquejado</title><path style="fill:#1D1D1B;" d="M49.094,6.173c-0.001-0.017-0.009-0.03-0.013-0.046c0.12-0.085,0.195-0.231,0.146-0.419 c-0.935-3.62-3.37-5.16-7.016-5.456C35.447-0.297,28.336,0.473,21.551,0.61c-5.325,0.108-12.2-0.866-17.328,0.737 c-1.898,0.594-3.2,1.803-3.495,3.498c-0.18-0.04-0.393,0.056-0.397,0.298c-0.113,8.456-0.046,16.933,0.012,25.391 c0.033,4.824-1.702,12.809,2.329,16.519c3.851,3.544,10.79,2.264,15.446,2.19c8.003-0.128,15.991-0.059,23.987-0.368 c0.023,0.02,0.051,0.036,0.088,0.038c3.984,0.205,5.65-1.562,6.377-4.117c0.048-0.001,0.095-0.002,0.143-0.003 c0.152-0.003,0.152-0.238,0-0.236c-0.028,0-0.056,0.001-0.085,0.002c0.152-0.589,0.249-1.224,0.326-1.876 c0.063-0.014,0.052-0.079,0.011-0.116c0.166-1.486,0.193-3.085,0.243-4.66C49.545,27.266,49.903,16.803,49.094,6.173z M44.709,24.422c1.409,0.094,2.853,0.271,4.268,0.248c0,1.105,0.004,2.212-0.001,3.314c-0.015,3.302-0.045,6.624-0.169,9.923 c-0.036,0.97,0.041,3.009-0.074,4.632c-1.829,0.006-3.67,0.199-5.5,0.248c-0.075,0.002-0.075,0.115,0,0.116 c1.81,0.016,3.688,0.054,5.488-0.191c-0.061,0.752-0.167,1.399-0.351,1.784c-0.012,0.025-0.027,0.045-0.039,0.069 c-6.202,0.078-12.398,0.3-18.591,0.63c-0.073,0.004-0.074,0.117,0,0.114c6.149-0.233,12.3-0.386,18.453-0.502 c-1.113,2.008-3.111,2.938-5.145,3.568c-6.381-0.126-12.747-0.069-19.131,0.086c-3.222,0.078-6.439,0.088-9.661,0.101 c-2.939,0.012-7.641,0.578-10.054-1.484c-5.048-4.314-2.929-15.504-2.99-21.425C1.145,19.325,1.135,12.989,1.003,6.664 C1.077,6.637,1.142,6.582,1.142,6.49C1.133-0.98,18.88,1.467,23.452,1.404c4.87-0.067,17.754-2.089,22.974,1.769 c-4.952-0.964-9.981-1.041-15.009-0.462c-0.106,0.012-0.108,0.18,0,0.169c5.233-0.54,10.328-0.22,15.48,0.675 c0.629,0.565,1.121,1.233,1.423,2.035c-1.466-0.193-2.987-0.163-4.454-0.05c-0.11,0.008-0.112,0.177,0,0.173 c1.523-0.056,3.019,0.036,4.537,0.099c0.013,0.039,0.031,0.073,0.042,0.112c0.015,0.05,0.04,0.088,0.066,0.125 c-0.013,0.036-0.02,0.077-0.017,0.124c0.035,0.555,0.052,1.113,0.081,1.669c-1.567-0.169-3.184-0.039-4.739,0.173 c-0.101,0.014-0.078,0.193,0.024,0.18c1.583-0.191,3.137-0.172,4.724-0.171c0.055,1.075,0.116,2.148,0.157,3.225 c-0.01-0.005-0.017-0.014-0.03-0.016c-1.391-0.162-2.816-0.159-4.215-0.222c-0.104-0.005-0.102,0.153,0,0.16 c1.397,0.096,2.814,0.261,4.215,0.258c0.016,0,0.024-0.009,0.036-0.014c0.111,2.896,0.177,5.798,0.206,8.699 c-3.933-0.931-8.034-1.085-12.046-0.673c-0.11,0.011-0.113,0.184,0,0.175c4.095-0.313,8.013,0.001,12.047,0.724 c0.013,1.38,0.021,2.76,0.022,4.139c-1.404-0.175-2.856-0.162-4.268-0.223C44.603,24.253,44.604,24.415,44.709,24.422z"/><path style="fill:#1D1D1B;" d="M21.551,15.563c-0.098-0.034-0.208-0.046-0.339-0.001C9.566,19.506,16.358,40,28.514,35.384 C40.496,30.833,33.112,10.361,21.551,15.563z M28.036,34.015c-10.529,4.04-16.814-13.466-6.521-17.355 c0.242-0.091,0.358-0.29,0.38-0.495c5.199-0.977,9.973,1.504,11.42,6.857C34.514,27.457,32.392,32.343,28.036,34.015z"/><path style="fill:#1D1D1B;" d="M43.247,9.036c-0.037-0.993-0.009-2.134-0.966-2.708c-0.669-0.401-1.607-0.273-2.333-0.29 c-1.061-0.024-2.119-0.09-3.179-0.124c-1.2-0.038-2.285-0.104-3.026,0.943c-0.135,0.19-0.065,0.399,0.078,0.539 c-0.125,2.241-0.07,4.577,0.15,6.81c0.1,1.016,0.245,1.565,1.296,1.814c1.837,0.435,4.194,0.219,6.059,0.076 c0.91-0.069,1.529-0.195,1.793-1.142C43.602,13.227,43.313,10.815,43.247,9.036z M42.033,14.587 c-0.535,0.779-2.898,0.482-3.697,0.486c-0.443,0.002-0.887,0.001-1.33-0.006c-0.974-0.016-1.122,0.148-1.684-0.632 c-0.705-0.979-0.462-2.694-0.56-3.877c-0.086-1.034-0.198-2.07-0.361-3.095c0.021-0.017,0.044-0.026,0.063-0.049 c0.742-0.888,2.738-0.559,3.718-0.56c0.967-0.002,3.362-0.355,3.909,0.717c0.398,0.781,0.056,2.655,0.042,3.548 C42.123,11.788,42.423,14.02,42.033,14.587z"/><path style="fill:#1D1D1B;" d="M48.502,27.866c-1.249-0.13-2.523-0.146-3.783-0.178c-0.02-2.027-0.114-4.021-0.308-5.909 c-0.028-0.271-0.239-0.414-0.454-0.438c-0.057-0.133-0.158-0.25-0.297-0.304c-1.374-0.541-3.052-0.234-4.431,0.132 c-0.033,0.009-0.056,0.028-0.084,0.042c-0.258,0.045-0.496,0.226-0.515,0.559c-0.532,8.99-5.551,18.592-15.979,16.889 c-8.996-1.47-10.616-10.154-11.76-17.648c-0.048-0.316-0.596-0.319-0.641,0c-0.002,0.012-0.002,0.024-0.003,0.035 c-1.115-0.492-2.633-0.38-3.872-0.08c-0.134-0.052-0.3-0.012-0.404,0.109c-0.061,0.018-0.127,0.034-0.186,0.052 c-0.198,0.062-0.242,0.412,0,0.448c0.02,0.003,0.042,0.006,0.061,0.009c-0.78,6.329-0.759,13.186-0.088,19.513 c0.011,0.105,0.058,0.184,0.12,0.242c0.224,3.76,6.167,2.781,8.794,2.753c8.566-0.089,17.171,0.353,25.729-0.073 c0.14-0.007,0.244-0.063,0.321-0.14c1.89-0.339,2.646-1.19,3.006-3.284c0.684-3.977,1.024-8.437,0.992-12.745 c1.257,0.093,2.526,0.205,3.781,0.2C48.623,28.049,48.618,27.878,48.502,27.866z M43.283,31.869 c-0.249,3.12,0.525,9.353-2.751,11.22c-0.042-0.012-0.081-0.028-0.13-0.03c-5.267-0.198-10.563,0.009-15.833,0.085 C21.6,43.186,8.342,44.937,6.481,41.131c0.001-0.013,0.007-0.022,0.007-0.036c0.026-6.463,0.109-12.956,0.079-19.418 c1.194,0.144,2.592,0.215,3.636-0.143c-0.863,8.077,4.382,17.613,13.046,18.452c10.997,1.065,15.907-8.208,16.557-17.842 c1.222-0.025,2.491,0.068,3.685-0.141C43.82,25.321,43.548,28.552,43.283,31.869z"/><path style="fill:#1D1D1B;" d="M46.389,46.484c-9.131,0.372-18.274,0.495-27.402,0.894c-0.082,0.004-0.083,0.128,0,0.129 c9.126,0.049,18.286-0.389,27.402-0.783C46.543,46.717,46.544,46.477,46.389,46.484z"/><path style="fill:#1D1D1B;" d="M48.509,40.013c-1.474-0.013-2.966,0.151-4.438,0.246c-0.086,0.006-0.087,0.138,0,0.135 c1.473-0.057,2.973-0.046,4.438-0.21C48.616,40.172,48.622,40.014,48.509,40.013z"/><path style="fill:#1D1D1B;" d="M48.739,37.348c-1.371-0.309-2.849-0.29-4.242-0.185c-0.095,0.007-0.097,0.154,0,0.15 c1.429-0.059,2.798,0.099,4.217,0.222C48.82,37.544,48.843,37.372,48.739,37.348z"/><path style="fill:#1D1D1B;" d="M48.713,33.983c-1.326-0.093-2.677-0.009-4.006,0.003c-0.106,0.001-0.106,0.163,0,0.164 c1.329,0.013,2.68,0.096,4.006,0.003C48.823,34.147,48.823,33.991,48.713,33.983z"/><path style="fill:#1D1D1B;" d="M48.516,31.067c-1.168-0.36-2.442-0.326-3.619-0.03c-0.056,0.014-0.032,0.097,0.023,0.085 c1.228-0.246,2.338-0.168,3.552,0.101C48.575,31.246,48.616,31.098,48.516,31.067z"/><path style="fill:#1D1D1B;" d="M48.746,22.135c-1.232-0.361-2.619-0.293-3.856,0.01c-0.082,0.02-0.046,0.137,0.034,0.124 c1.309-0.216,2.494-0.144,3.802,0.013C48.812,22.292,48.824,22.158,48.746,22.135z"/><path style="fill:#1D1D1B;" d="M48.714,17.095c-4.128-0.469-8.338-0.222-12.444,0.337c-0.056,0.008-0.043,0.106,0.013,0.1 c4.167-0.472,8.251-0.413,12.43-0.229C48.849,17.308,48.843,17.11,48.714,17.095z"/><path style="fill:#1D1D1B;" d="M48.712,14.14c-1.763,0.143-3.498,0.288-5.269,0.26c-0.078-0.001-0.077,0.116,0,0.12 c1.757,0.087,3.553,0.082,5.296-0.185C48.848,14.318,48.823,14.131,48.712,14.14z"/></symbol><symbol id="investigacion" viewBox="0 0 512 512"><title>investigacion</title><path d="m502 199.441406h-36.6875c-4.847656-18.003906-12-35.246094-21.328125-51.445312l25.953125-25.953125c3.90625-3.90625 3.90625-10.238281 0-14.144531l-65.839844-65.839844c-1.875-1.875-4.417968-2.925782-7.070312-2.925782s-5.195313 1.050782-7.070313 2.925782l-25.949219 25.953125c-16.199218-9.332031-33.445312-16.484375-51.453124-21.335938v-36.675781c0-5.523438-4.476563-10-10-10h-93.113282c-5.519531 0-10 4.476562-10 10v36.675781c-18 4.851563-35.246094 12-51.449218 21.335938l-25.949219-25.953125c-3.90625-3.902344-10.234375-3.902344-14.140625 0l-65.84375 65.84375c-3.902344 3.902344-3.902344 10.234375 0 14.140625l25.953125 25.949219c-9.328125 16.195312-16.480469 33.445312-21.332031 51.453124h-36.679688c-5.523438 0-10 4.476563-10 10v93.113282c0 5.519531 4.476562 10 10 10h36.6875c4.847656 18 12 35.246094 21.328125 51.445312l-25.957031 25.953125c-3.902344 3.902344-3.902344 10.234375 0 14.140625l65.839844 65.84375c1.878906 1.875 4.421874 2.925782 7.074218 2.925782 2.648438 0 5.195313-1.050782 7.070313-2.925782l25.949219-25.949218c16.195312 9.332031 33.445312 16.480468 51.449218 21.332031v36.675781c0 5.523438 4.480469 10 10 10h93.113282c5.523437 0 10-4.476562 10-10v-36.675781c18-4.851563 35.25-12.003907 51.449218-21.335938l25.949219 25.953125c1.875 1.875 4.421875 2.925782 7.074219 2.925782s5.195312-1.050782 7.070312-2.925782l65.839844-65.84375c1.875-1.875 2.929688-4.417968 2.929688-7.070312s-1.054688-5.195313-2.929688-7.070313l-25.949219-25.949219c9.328125-16.195312 16.476563-33.441406 21.332031-51.453124h36.679688c5.523438 0 10-4.476563 10-10v-93.113282c0-5.519531-4.476562-10-10-10zm-10 93.117188h-34.488281c-4.65625 0-8.699219 3.214844-9.742188 7.753906-4.890625 21.246094-13.253906 41.410156-24.851562 59.9375-2.472657 3.949219-1.886719 9.082031 1.40625 12.378906l24.402343 24.398438-51.699218 51.699218-24.402344-24.402343c-3.296875-3.292969-8.429688-3.875-12.378906-1.402344-18.535156 11.605469-38.703125 19.964844-59.933594 24.851563-4.539062 1.042968-7.757812 5.085937-7.757812 9.742187v34.484375h-73.109376v-34.484375c0-4.660156-3.21875-8.699219-7.757812-9.746094-21.238281-4.882812-41.40625-13.246093-59.9375-24.847656-3.949219-2.476563-9.085938-1.890625-12.378906 1.402344l-24.398438 24.402343-51.699218-51.699218 24.40625-24.40625c3.292968-3.292969 3.875-8.425782 1.40625-12.375-11.601563-18.535156-19.960938-38.699219-24.847657-59.933594-1.042969-4.539062-5.085937-7.753906-9.746093-7.753906h-34.492188v-73.113282h34.484375c4.660156 0 8.703125-3.21875 9.746094-7.757812 4.890625-21.242188 13.25-41.40625 24.847656-59.933594 2.472656-3.949218 1.890625-9.085937-1.402344-12.378906l-24.402343-24.402344 51.699218-51.699218 24.402344 24.402343c3.292969 3.292969 8.425781 3.878907 12.375 1.40625 18.542969-11.605469 38.707031-19.96875 59.933594-24.851562 4.542968-1.046875 7.757812-5.085938 7.757812-9.746094v-34.484375h73.113282v34.484375c0 4.660156 3.21875 8.699219 7.757812 9.746094 21.234375 4.882812 41.402344 13.246093 59.9375 24.847656 3.949219 2.472656 9.082031 1.890625 12.375-1.402344l24.402344-24.402343 51.699218 51.699218-24.40625 24.40625c-3.292968 3.292969-3.878906 8.425782-1.40625 12.375 11.601563 18.535156 19.957032 38.699219 24.84375 59.933594 1.046876 4.539062 5.085938 7.757812 9.746094 7.757812h34.496094zm0 0"/><path d="m315.175781 301.035156c14.761719-17.960937 22.785157-40.277344 22.785157-63.832031 0-55.558594-45.199219-100.757813-100.757813-100.757813-38.628906 0-74.34375 22.539063-90.984375 57.425782-2.375 4.984375-.265625 10.953125 4.722656 13.332031 4.980469 2.375 10.953125.265625 13.328125-4.722656 13.34375-27.964844 41.96875-46.035157 72.933594-46.035157 44.53125 0 80.757813 36.226563 80.757813 80.757813 0 21.570313-8.398438 41.851563-23.652344 57.105469s-35.535156 23.652344-57.105469 23.652344c-30.964844 0-59.589844-18.070313-72.933594-46.035157-2.375-4.984375-8.34375-7.097656-13.328125-4.722656-4.984375 2.378906-7.097656 8.347656-4.722656 13.332031 16.640625 34.886719 52.355469 57.425782 90.984375 57.425782 23.550781 0 45.867187-8.023438 63.832031-22.785157l57.449219 57.449219c1.953125 1.953125 4.511719 2.929688 7.070313 2.929688 2.558593 0 5.117187-.976563 7.070312-2.929688 3.90625-3.902344 3.90625-10.234375 0-14.140625zm0 0"/><path d="m156.445312 237.203125c0-5.507813-4.492187-10-10-10-5.507812 0-10 4.492187-10 10s4.492188 10 10 10c5.507813 0 10-4.492187 10-10zm0 0"/></symbol><symbol id="lenguaje-de-marcado-extensible" viewBox="0 0 512 512"><title>lenguaje-de-marcado-extensible</title><path d="m470 180h-140.644531c.445312-4.933594.6875-9.929688.6875-14.980469 0-90.992187-74.03125-165.019531-165.023438-165.019531-28.984375 0-57.496093 7.625-82.453125 22.046875-4.78125 2.761719-6.417968 8.878906-3.65625 13.660156 2.765625 4.785157 8.882813 6.417969 13.664063 3.65625 21.917969-12.667969 46.96875-19.363281 72.445312-19.363281 79.964844 0 145.023438 65.054688 145.023438 145.019531 0 79.964844-65.058594 145.023438-145.023438 145.023438-33.472656 0-64.917969-11.089844-90.9375-32.066407-2.609375-2.101562-6.066406-2.730468-9.214843-1.765624l-26.542969 6.941406 10.398437-22.851563c1.496094-3.28125 1.105469-7.109375-1.015625-10.027343-18.125-24.894532-27.707031-54.375-27.707031-85.253907 0-25.542969 6.730469-50.65625 19.464844-72.621093 2.769531-4.78125 1.140625-10.898438-3.636719-13.667969s-10.894531-1.144531-13.667969 3.636719c-14.496094 25.007812-22.160156 53.589843-22.160156 82.652343 0 33.160157 9.714844 64.914063 28.152344 92.199219l-16.742188 36.785156c-1.601562 3.511719-1.035156 7.628906 1.449219 10.582032 2.484375 2.953124 6.445313 4.210937 10.179687 3.234374l42.527344-11.117187c28.507813 21.535156 63.621094 33.339844 99.453125 33.339844 7.800781 0 15.46875-.558594 22.980469-1.609375v87.566406c0 23.15625 18.839844 42 41.996094 42h141.433594l63.238281 51.738281c1.820312 1.492188 4.066406 2.257813 6.332031 2.257813 1.457031 0 2.917969-.316406 4.28125-.960938 3.492188-1.65625 5.71875-5.171875 5.71875-9.039062v-43.996094h19c23.160156 0 42-18.84375 42-42v-194c0-23.160156-18.839844-42-42-42zm22 236c0 12.128906-9.867188 22-22 22h-29c-5.523438 0-10 4.476562-10 10v32.894531l-49.390625-40.410156c-2.722656-2.484375-5.105469-2.484375-10.460937-2.484375h-141.152344c-12.128906 0-21.996094-9.871094-21.996094-22v-91.648438c59.152344-15.972656 105.238281-64.074218 118.296875-124.351562h143.703125c12.132812 0 22 9.867188 22 22zm0 0"/><path d="m399.761719 348.605469c3.390625-1.597657 5.742187-5.039063 5.742187-9.039063 0-5.519531-4.476562-10-10-10h-4.09375l-32.25-73.5c-1.597656-3.636718-5.191406-5.984375-9.160156-5.984375s-7.5625 2.347657-9.15625 5.984375l-32.25 73.5h-4.09375c-5.523438 0-10 4.480469-10 10 0 4 2.351562 7.441406 5.742188 9.039063l-12.011719 27.375c-2.21875 5.058593.082031 10.957031 5.136719 13.175781 5.058593 2.21875 10.957031-.082031 13.175781-5.140625l15.117187-34.449219h56.683594l15.117188 34.449219c1.644531 3.75 5.3125 5.984375 9.164062 5.984375 1.339844 0 2.703125-.269531 4.011719-.84375 5.054687-2.21875 7.359375-8.117188 5.136719-13.175781zm-69.328125-19.039063 19.566406-44.59375 19.566406 44.59375zm0 0"/><path d="m55.402344 65.398438c2.628906 0 5.207031-1.070313 7.070312-2.929688 1.859375-1.859375 2.929688-4.4375 2.929688-7.070312 0-2.628907-1.070313-5.207032-2.929688-7.070313-1.863281-1.859375-4.441406-2.929687-7.070312-2.929687-2.640625 0-5.210938 1.070312-7.070313 2.929687-1.859375 1.863281-2.929687 4.441406-2.929687 7.070313 0 2.632812 1.070312 5.210937 2.929687 7.070312 1.859375 1.863281 4.4375 2.929688 7.070313 2.929688zm0 0"/><path d="m105.328125 225.878906c-4.84375 2.65625-6.617187 8.734375-3.960937 13.578125 1.820312 3.316407 5.246093 5.195313 8.777343 5.195313 1.625 0 3.273438-.398438 4.800781-1.234375 22.300782-12.230469 39.457032-31.253907 49.492188-53.6875 10.039062 22.433593 27.191406 41.457031 49.492188 53.6875 1.527343.835937 3.175781 1.234375 4.800781 1.234375 3.53125 0 6.957031-1.878906 8.777343-5.195313 2.65625-4.84375.882813-10.921875-3.960937-13.578125-26.105469-14.316406-43.675781-39.902344-48.039063-68.8125h44.398438c5.523438 0 10-4.476562 10-10 0-5.523437-4.476562-10-10-10h-45.46875v-41.671875c0-5.523437-4.476562-10-10-10s-10 4.476563-10 10v41.671875h-36.125c-5.523438 0-10 4.476563-10 10 0 5.523438 4.476562 10 10 10h35.054688c-4.363282 28.910156-21.933594 54.5-48.039063 68.8125zm0 0"/></symbol></svg>