<?xml version="1.0" encoding="iso-8859-1"?>
<!-- Generator: Adobe Illustrator 18.0.0, SVG Export Plug-In . SVG Version: 6.00 Build 0)  -->
<!DOCTYPE svg PUBLIC "-//W3C//DTD SVG 1.1//EN" "http://www.w3.org/Graphics/SVG/1.1/DTD/svg11.dtd">
<svg version="1.1" id="Capa_1" xmlns="http://www.w3.org/2000/svg" xmlns:xlink="http://www.w3.org/1999/xlink" x="0px" y="0px"
	 viewBox="0 0 49.745 49.745" style="enable-background:new 0 0 49.745 49.745;" xml:space="preserve">
<g>
	<path style="fill:#1D1D1B;" d="M12.832,6.387c-0.12,0.01-0.24,0.017-0.36,0.027c-0.104-3.697-3.148-7.6-7.109-6.074
		c-0.083-0.033-0.172-0.05-0.27-0.028c-3.152,0.706-5.131,4.34-4.171,7.394c1.071,3.409,4.84,5.054,8.143,3.914
		c2.42-0.835,3.417-2.893,3.406-5.049c0.127-0.015,0.255-0.022,0.381-0.04C12.933,6.521,12.915,6.38,12.832,6.387z M11.327,6.496
		C9.932,6.582,8.542,6.618,7.136,6.549c-0.092-0.004-0.092,0.138,0,0.143C8.52,6.77,9.913,6.782,11.297,6.686
		c-0.078,0.544-0.213,1.077-0.448,1.562C9.26,8.235,7.669,8.26,6.081,8.27c-0.067,0-0.067,0.103,0,0.103
		c1.561,0.01,3.124,0.034,4.686,0.023c-0.169,0.32-0.364,0.624-0.602,0.894C8.091,9.312,6.039,9.323,3.968,9.151
		c-0.09-0.007-0.088,0.13,0,0.139c2.003,0.199,4.04,0.297,6.051,0.151c-0.526,0.54-1.193,0.949-2.001,1.142
		C5.445,11.199,2.686,9.71,1.99,7.115c-0.737-2.746,1.154-4.87,3.474-5.926C5.488,1.177,5.501,1.16,5.521,1.147
		c1.77-0.243,3.61,0.239,4.746,1.564c-1.774-0.21-3.585-0.14-5.365-0.108c-0.07,0.001-0.071,0.109,0,0.11
		c1.852,0.021,3.685,0.043,5.526,0.216c0.263,0.35,0.495,0.737,0.653,1.195c0.052,0.149,0.089,0.302,0.126,0.454
		c-1.64,0.099-3.254,0.07-4.889-0.167c-0.09-0.013-0.13,0.124-0.038,0.138c1.647,0.262,3.307,0.339,4.966,0.18
		C11.369,5.312,11.39,5.911,11.327,6.496z"/>
	<path style="fill:#1D1D1B;" d="M5.833,17.003c1.531,0.009,3.055,0.134,4.584,0.171c0.573,0.014,0.731-0.934,0.139-1.025
		c-2.68-0.414-6.119-0.706-8.739,0.125c-0.115,0.037-0.181,0.144-0.207,0.257c-0.205-0.069-0.478,0.047-0.509,0.336
		c-1.133,10.353-0.829,21.099-0.704,31.505c0,0.036,0.014,0.063,0.02,0.095c-0.08,0.203,0.034,0.489,0.323,0.524
		c3.007,0.367,6.495,1.003,9.506,0.604c0.419-0.056,0.592-0.673,0.108-0.798c-2.762-0.709-6.042-0.574-8.944-0.541
		c0.035-10.429,0.722-20.945,0.429-31.36C3.155,17.104,4.502,16.995,5.833,17.003z"/>
	<path style="fill:#1D1D1B;" d="M10.885,17.044c-0.019,0.426-0.043,0.86-0.064,1.29c-2.181-0.401-4.444-0.419-6.645-0.262
		c-0.078,0.005-0.079,0.127,0,0.122c2.249-0.123,4.416,0.072,6.635,0.328c-0.039,0.781-0.076,1.561-0.116,2.345
		c-1.816-0.118-3.636-0.192-5.452-0.281c-0.099-0.005-0.098,0.148,0,0.154c1.812,0.112,3.628,0.238,5.443,0.321
		c-0.036,0.71-0.069,1.415-0.105,2.125c-1.357-0.044-2.721-0.006-4.078,0.011c-0.121,0.002-0.121,0.186,0,0.188
		c1.353,0.017,2.715,0.055,4.068,0.011c-0.051,0.996-0.098,1.98-0.148,2.978c-1.377-0.019-2.755,0.002-4.131,0.01
		c-0.09,0-0.09,0.139,0,0.139c1.373,0.008,2.749,0.028,4.123,0.01c-0.036,0.719-0.075,1.434-0.108,2.154
		c-1.551-0.072-3.112-0.005-4.657,0.13c-0.076,0.007-0.078,0.126,0,0.12c1.554-0.116,3.096-0.111,4.649-0.079
		c-0.03,0.649-0.068,1.296-0.094,1.945c-2.077-0.044-4.156-0.036-6.232-0.043c-0.09,0-0.09,0.138,0,0.139
		c2.074,0.029,4.151,0.075,6.226,0.067c-0.039,1.006-0.08,2.011-0.106,3.017c-0.004-0.001-0.002-0.007-0.007-0.007
		c-1.696-0.009-3.372-0.034-5.058-0.228c-0.092-0.011-0.09,0.132,0,0.143c1.675,0.208,3.372,0.331,5.058,0.218
		c0.003,0,0.002-0.005,0.005-0.005c-0.028,1.149-0.063,2.299-0.064,3.446c-1.385-0.028-2.773-0.004-4.157-0.001
		c-0.1,0-0.101,0.156,0,0.156c1.385,0.003,2.773,0.028,4.158-0.001c0,0.757,0.001,1.513,0.015,2.268
		c-1.954,0.006-3.907,0.056-5.86,0.093c-0.06,0.001-0.06,0.093,0,0.093c1.954-0.021,3.909-0.029,5.862-0.08
		c0.011,0.555,0.015,1.111,0.035,1.665c-1.19-0.091-2.384-0.15-3.576-0.219c-0.102-0.006-0.101,0.152,0,0.158
		c1.194,0.079,2.389,0.168,3.584,0.224c0.038,1.016,0.085,2.032,0.158,3.044c-1.254,0.019-2.495,0.004-3.753-0.139
		c-0.07-0.008-0.069,0.101,0,0.11c1.242,0.149,2.508,0.232,3.762,0.176c0.108,1.46,0.252,2.915,0.446,4.361
		c0.06,0.448,0.806,0.34,0.787-0.106c-0.404-9.458,0.007-18.873,0.367-28.316c0-0.005,0.001-0.008,0.001-0.013
		c0.05-1.325,0.1-2.651,0.146-3.978C12.028,16.324,10.917,16.327,10.885,17.044z"/>
	<path style="fill:#1D1D1B;" d="M44.638,18.607c-4.975-5.293-13.881-4.571-17.608,1.701c0.117-0.468,0.144-0.964,0.184-1.441
		c0.041-0.487,0.163-1.032,0.085-1.523c0.327-0.08,0.429-0.584,0.041-0.67c-3.044-0.671-6.657-1.086-9.756-0.858
		c-0.373,0.028-0.563,0.455-0.415,0.726c-0.485,0.994-0.31,2.172-0.342,3.282c-0.092,3.201-0.038,6.412-0.042,9.614
		c-0.007,6.089-0.009,12.177-0.039,18.266c0,0.071,0.017,0.129,0.037,0.185c-0.246,0.196-0.247,0.59,0.039,0.757
		c1.275,0.744,2.712,0.638,4.148,0.641c1.884,0.005,3.872,0.207,5.724-0.163c0.417-0.083,0.418-0.761,0-0.844
		c-2.918-0.578-6.004,0.246-8.918-0.354c0.028-0.064,0.045-0.138,0.045-0.223c0.002-5.127,0.024-10.254,0.046-15.382
		c0.011-2.564,0.027-5.127,0.032-7.691c0.002-0.881-0.486-6.402-0.073-7.817c2.692,0.565,5.796,0.724,8.579,0.597
		c-0.091,0.303-0.111,0.633-0.127,0.956c-1.953-0.018-3.906,0.002-5.859,0.016c-0.075,0-0.075,0.115,0,0.116
		c1.95,0.014,3.901,0.034,5.851,0.016c-0.004,0.073-0.008,0.151-0.013,0.222c-0.047,0.624-0.087,1.274,0.097,1.879
		c0.069,0.225,0.306,0.268,0.465,0.161c0.027,0.26,0.357,0.462,0.574,0.222c5.142-5.669,11.543-5.492,15.716-1.413
		c-2.711-0.237-5.426-0.438-8.138-0.637c-0.104-0.008-0.102,0.151,0,0.16c2.797,0.259,5.599,0.517,8.401,0.734
		c0.673,0.7,1.289,1.493,1.82,2.396c-2.674-0.441-5.408-0.682-8.1-0.884c-0.082-0.006-0.079,0.118,0,0.127
		c2.75,0.303,5.494,0.704,8.244,1.003c0.413,0.735,0.777,1.528,1.079,2.382c-2.489-0.085-4.944-0.252-7.417-0.629
		c-0.095-0.015-0.137,0.13-0.04,0.146c2.484,0.419,5.007,0.677,7.528,0.681c0.192,0.565,0.36,1.152,0.498,1.764
		c0.075,0.331,0.122,0.663,0.185,0.994c-2.037-0.082-4.024-0.351-6.01-0.825c-0.054-0.013-0.11,0.062-0.059,0.102
		c0.192,0.147,0.382,0.299,0.567,0.454c0.052,0.043,0.127-0.032,0.075-0.075c-0.684-0.561,0.428-0.095,0.702-0.035
		c0.59,0.129,1.184,0.236,1.781,0.322c0.988,0.143,1.983,0.223,2.981,0.252c0.206,1.123,0.37,2.246,0.473,3.369
		c-1.282-0.152-2.57-0.256-3.855-0.376c-0.069-0.006-0.068,0.1,0,0.108c1.287,0.139,2.576,0.296,3.867,0.403
		c0.079,0.891,0.14,1.783,0.171,2.674c-1.277-0.127-2.559-0.215-3.838-0.318c-0.072-0.006-0.071,0.106,0,0.112
		c1.28,0.11,2.56,0.236,3.842,0.322c0.036,1.087,0.047,2.174,0.039,3.263c-1.15,0.001-2.288-0.057-3.434-0.228
		c-0.076-0.011-0.108,0.104-0.032,0.116c1.148,0.177,2.305,0.269,3.465,0.243c-0.007,0.866-0.021,1.732-0.04,2.6
		c-0.997,0.011-1.982-0.036-2.975-0.199c-0.074-0.012-0.107,0.1-0.031,0.114c0.993,0.177,1.997,0.266,3.003,0.233
		c-0.017,0.795-0.035,1.59-0.05,2.387c-1.467-0.163-2.944-0.267-4.414-0.394c-0.072-0.006-0.071,0.105,0,0.112
		c1.469,0.143,2.939,0.311,4.411,0.418c-0.016,0.865-0.027,1.731-0.026,2.598c-2.175,0.005-4.305-0.097-6.474-0.433
		c-0.055-0.009-0.08,0.075-0.024,0.085c2.136,0.386,4.324,0.578,6.498,0.499c0.002,0.707,0.011,1.414,0.033,2.122
		c0.001,0.027,0.01,0.045,0.015,0.069c-2.653-0.936-6.12-0.538-8.964-0.144c0.096-5.703,0.648-11.711,0.046-17.364
		c-0.325-3.059-1.398-5.345-4.568-5.982c-0.051-0.01-0.099-0.004-0.146,0.01c-3.162-1.099-5.138,0.343-6.336,2.991
		c-0.932-0.038-1.875,0.003-2.807,0.019c-0.076,0.001-0.076,0.117,0,0.118c0.909,0.016,1.828,0.053,2.738,0.02
		c-0.335,0.773-0.611,1.638-0.828,2.575c-0.71,0.03-1.418,0.088-2.127,0.124c-0.045,0.002-0.045,0.071,0,0.07
		c0.697-0.023,1.395-0.025,2.092-0.053c-0.227,1.013-0.393,2.1-0.509,3.224c-1.028-0.049-2.061,0.053-3.072,0.235
		c-0.083,0.015-0.047,0.139,0.035,0.126c1.011-0.164,2.007-0.196,3.02-0.193c-0.1,1.026-0.164,2.078-0.19,3.132
		c-1.163,0.109-2.307,0.171-3.476,0.083c-0.081-0.006-0.08,0.12,0,0.126c1.156,0.097,2.325,0.098,3.473-0.086
		c-0.019,0.83-0.018,1.659-0.001,2.472c-0.513,0.095-1.032,0.109-1.559,0.032c-0.072-0.01-0.103,0.099-0.03,0.11
		c0.544,0.082,1.068,0.075,1.591-0.028c0.026,1.144,0.084,2.255,0.16,3.296c-0.935,0.007-1.852-0.038-2.776-0.207
		c-0.079-0.014-0.114,0.107-0.034,0.122c0.93,0.177,1.874,0.266,2.82,0.215c0.059,0.788,0.129,1.537,0.205,2.223
		c-1.003,0.059-2.004,0.131-3.007,0.203c-0.071,0.005-0.072,0.116,0,0.112c1.007-0.063,2.014-0.126,3.02-0.202
		c0.086,0.767,0.179,1.46,0.271,2.046c-1.808,0.066-3.592-0.019-5.382-0.313c-0.041-0.007-0.059,0.056-0.017,0.063
		c1.795,0.316,3.596,0.44,5.415,0.345c0.085,0.534,0.17,0.988,0.247,1.321c0.063,0.273,0.49,0.212,0.487-0.066
		c-0.061-5.107-2.972-26.137,7.095-23.341c5.176,3.442,3.028,17.475,3.043,22.881c0.001,0.461,0.462,0.616,0.787,0.474
		c1.484-0.04,2.972-0.051,4.455,0.002c1.546,0.055,3.215,0.352,4.743,0.15c0.361-0.048,0.532-0.386,0.427-0.653
		c0.178-0.003,0.363-0.127,0.394-0.36C49.677,39.565,50.954,25.327,44.638,18.607z"/>
	<path style="fill:#1D1D1B;" d="M9.859,46.631c-1.892,0.345-3.754,0.493-5.675,0.427c-0.071-0.002-0.07,0.104,0,0.11
		c1.916,0.144,3.836,0.016,5.711-0.404C9.982,46.744,9.945,46.616,9.859,46.631z"/>
</g>
<g>
</g>
<g>
</g>
<g>
</g>
<g>
</g>
<g>
</g>
<g>
</g>
<g>
</g>
<g>
</g>
<g>
</g>
<g>
</g>
<g>
</g>
<g>
</g>
<g>
</g>
<g>
</g>
<g>
</g>
</svg>
