<?xml version="1.0" encoding="iso-8859-1"?>
<!-- Generator: Adobe Illustrator 18.0.0, SVG Export Plug-In . SVG Version: 6.00 Build 0)  -->
<!DOCTYPE svg PUBLIC "-//W3C//DTD SVG 1.1//EN" "http://www.w3.org/Graphics/SVG/1.1/DTD/svg11.dtd">
<svg version="1.1" id="Capa_1" xmlns="http://www.w3.org/2000/svg" xmlns:xlink="http://www.w3.org/1999/xlink" x="0px" y="0px"
	 viewBox="0 0 51.535 51.535" style="enable-background:new 0 0 51.535 51.535;" xml:space="preserve">
<g>
	<path style="fill:#1D1D1B;" d="M38.772,3.943c-7.948-6.317-19.463-4.628-26.609,2.104C6.12,11.741,3.737,21.63,9.583,28.058
		c0.225,0.337,0.508,0.63,0.837,0.863c0.025,0.023,0.044,0.048,0.069,0.071c0.066,0.06,0.135,0.084,0.201,0.092
		c0.985,0.568,2.23,0.643,3.197-0.116c0.565-0.444,0.98-1.147,1.026-1.873c0.037-0.587-0.215-1.055-0.492-1.523
		c0.061-0.108,0.083-0.243,0.019-0.386c-4.469-9.941,5.164-21.16,15.456-15.449c3.773,2.094,5.967,6.123,6.105,10.402
		c0.069,2.143-0.362,4.41-1.346,6.334c-0.518,1.038-1.185,1.973-2.002,2.808c-2.383,2.592-5.152,2.18-8.302-1.218
		c1.308-3.801,5.749-15.692-1.245-15.578c-5.152,0.084-9.376,8.149-4.983,11.712c-1.959,4.833-3.091,10.034-3.778,15.189
		c-0.477,3.58-1.588,8.447,0.553,11.651c-0.062,0.367,0.445,0.685,0.748,0.375c2.452-2.505,4.217-5.747,5.545-8.969
		c0.794-1.927,1.877-4.436,1.965-6.742c6.21,4.494,16.882-0.709,19.9-6.943C46.936,20.742,45.994,9.684,38.772,3.943z
		 M39.337,31.089c-1.472,0.138-2.881,0.14-4.386-0.187c-0.083-0.018-0.119,0.108-0.035,0.128c1.331,0.323,2.742,0.489,4.118,0.364
		c-0.541,0.541-1.114,1.054-1.724,1.521c-0.015-0.007-0.025-0.019-0.045-0.019c-5.832-0.027-11.667-0.022-17.499,0.042
		c-0.11,0.001-0.11,0.17,0,0.171c5.741,0.063,11.484,0.069,17.226,0.043c-4.097,2.984-9.479,4.123-13.913,1.218
		c-0.05-0.31-0.119-0.615-0.222-0.909c-0.084-0.24-0.432-0.201-0.445,0.06c-0.017,0.326-0.047,0.649-0.08,0.971
		c-0.082,0.132-0.115,0.292-0.051,0.438c-0.013,0.1-0.035,0.198-0.049,0.298c-1.098-0.044-2.213,0.018-3.308,0.03
		c-0.11,0.001-0.11,0.17,0,0.171c1.082,0.012,2.184,0.073,3.27,0.032c-0.112,0.712-0.255,1.415-0.439,2.106
		c-0.018-0.037-0.047-0.068-0.095-0.064c-1.9,0.144-3.798,0.466-5.687,0.717c-0.101,0.013-0.105,0.174,0,0.163
		c1.902-0.204,3.83-0.34,5.718-0.649c0.013-0.002,0.018-0.013,0.028-0.019c-0.247,0.9-0.549,1.784-0.893,2.653
		c-0.987,0.112-1.948,0.223-2.955,0.176c-0.085-0.004-0.083,0.124,0,0.131c0.94,0.074,1.93,0.084,2.872-0.081
		c-0.258,0.637-0.537,1.267-0.836,1.888c-1.388,0.132-2.785,0.417-4.156,0.647c-0.079,0.013-0.061,0.151,0.019,0.141
		c1.329-0.165,2.694-0.289,4.015-0.539c-0.367,0.748-0.757,1.487-1.166,2.216c-0.892,0.103-1.785,0.296-2.665,0.441
		c-0.088,0.015-0.049,0.144,0.036,0.132c0.822-0.111,1.667-0.184,2.49-0.325c-0.318,0.559-0.642,1.114-0.975,1.663
		c-0.705,0.185-1.391,0.303-2.167,0.238c-0.102-0.009-0.099,0.147,0,0.158c0.635,0.074,1.324,0.058,1.975-0.083
		c-0.646,1.053-1.31,2.09-1.967,3.112c-1.535-4.325-0.031-11.036,0.753-15.17c0.749-3.946,1.987-7.72,3.073-11.578
		c0.108-0.384-0.497-0.668-0.665-0.28c-0.031,0.071-0.057,0.144-0.087,0.215c-1.071-2.01-1.223-4.201-0.084-6.307
		c1.27-2.346,6.804-6.466,7.679-0.09c0.225,1.643-0.765,3.887-1.168,5.472c-0.486,1.91-1.017,3.815-1.374,5.754
		c-0.029,0.159,0.029,0.282,0.12,0.365c0.145,4.991,7.1,4.3,9.972,1.529c0.543-0.524,1.019-1.101,1.445-1.711
		c2.154-0.058,4.334-0.036,6.482-0.211C40.889,29.268,40.164,30.219,39.337,31.089z M38.952,20.234
		c1.564,0.095,3.195,0.164,4.76-0.03c-0.11,1.543-0.362,3.088-0.745,4.598c-0.284,1.117-0.747,2.214-1.352,3.26
		c-2.16-0.023-4.337,0.162-6.495,0.268c2.811-4.163,2.961-10.023,0.572-14.424c2.412,0.012,4.935-0.062,7.298-0.557
		c0.102-0.021,0.081-0.193-0.025-0.184c-2.465,0.21-4.882,0.528-7.361,0.593c-0.325-0.58-0.69-1.136-1.104-1.656
		C25.088,0.285,6.356,11.793,13.535,25.199c-0.015,0.216,0.045,0.437,0.129,0.687c0.202,0.6,0.351,1.09-0.04,1.672
		c-0.855,1.275-2.413,0.601-3.326-0.22c-0.068-0.061-0.144-0.092-0.221-0.111C0.838,12.96,19.318-3.081,33.618,2.504
		c-2.792,0.01-5.588,0.113-8.37,0.309c-0.097,0.007-0.098,0.156,0,0.152c3.027-0.122,6.045-0.16,9.071-0.15
		c0.701,0.312,1.395,0.661,2.069,1.084c0.569,0.357,1.087,0.75,1.583,1.158c-2.425-0.06-4.866,0.158-7.263,0.488
		c-0.09,0.012-0.069,0.171,0.022,0.16c2.521-0.309,5.018-0.366,7.551-0.387c0.809,0.704,1.531,1.465,2.15,2.287
		c-2.558-0.059-5.134,0.285-7.613,0.89c-0.093,0.023-0.053,0.162,0.039,0.142c2.584-0.553,5.13-0.752,7.76-0.788
		c1.872,2.599,2.842,5.708,3.085,8.958c-1.518,0.034-3.015,0.148-4.538,0.094c-0.101-0.004-0.099,0.149,0,0.156
		c1.492,0.111,3.064,0.17,4.551-0.049c0.064,0.977,0.071,1.964,0.01,2.955c-1.593,0.03-3.172,0.151-4.772,0.09
		C38.835,20.048,38.836,20.227,38.952,20.234z"/>
	<path style="fill:#1D1D1B;" d="M34.74,34.256c-2.252,0.077-4.51,0.358-6.755,0.554c-0.098,0.009-0.1,0.161,0,0.154
		c2.247-0.147,4.519-0.214,6.755-0.48C34.882,34.467,34.891,34.251,34.74,34.256z"/>
	<path style="fill:#1D1D1B;" d="M42.324,25.972c-1.335,0.075-2.673,0.31-4,0.477c-0.107,0.014-0.11,0.183,0,0.171
		c1.337-0.145,2.701-0.228,4.025-0.466C42.451,26.136,42.428,25.967,42.324,25.972z"/>
	<path style="fill:#1D1D1B;" d="M42.957,23.238c-1.528-0.118-3.106-0.02-4.638,0.01c-0.099,0.002-0.099,0.152,0,0.154
		c1.532,0.031,3.111,0.129,4.638,0.011C43.069,23.404,43.069,23.247,42.957,23.238z"/>
	<path style="fill:#1D1D1B;" d="M41.899,10.771c-1.995,0.224-3.885,0.327-5.882,0.038c-0.066-0.009-0.096,0.09-0.028,0.102
		c1.952,0.337,3.983,0.441,5.935,0.051C42.031,10.941,42.009,10.759,41.899,10.771z"/>
</g>
<g>
</g>
<g>
</g>
<g>
</g>
<g>
</g>
<g>
</g>
<g>
</g>
<g>
</g>
<g>
</g>
<g>
</g>
<g>
</g>
<g>
</g>
<g>
</g>
<g>
</g>
<g>
</g>
<g>
</g>
</svg>
