<svg height="512pt" viewBox="0 0 512 512" width="512pt" xmlns="http://www.w3.org/2000/svg"><g fill-rule="evenodd"><path d="m502 199.441406h-36.6875c-4.847656-18.003906-12-35.246094-21.328125-51.445312l25.953125-25.953125c3.90625-3.90625 3.90625-10.238281 0-14.144531l-65.839844-65.839844c-1.875-1.875-4.417968-2.925782-7.070312-2.925782s-5.195313 1.050782-7.070313 2.925782l-25.949219 25.953125c-16.199218-9.332031-33.445312-16.484375-51.453124-21.335938v-36.675781c0-5.523438-4.476563-10-10-10h-93.113282c-5.519531 0-10 4.476562-10 10v36.675781c-18 4.851563-35.246094 12-51.449218 21.335938l-25.949219-25.953125c-3.90625-3.902344-10.234375-3.902344-14.140625 0l-65.84375 65.84375c-3.902344 3.902344-3.902344 10.234375 0 14.140625l25.953125 25.949219c-9.328125 16.195312-16.480469 33.445312-21.332031 51.453124h-36.679688c-5.523438 0-10 4.476563-10 10v93.113282c0 5.519531 4.476562 10 10 10h36.6875c4.847656 18 12 35.246094 21.328125 51.445312l-25.957031 25.953125c-3.902344 3.902344-3.902344 10.234375 0 14.140625l65.839844 65.84375c1.878906 1.875 4.421874 2.925782 7.074218 2.925782 2.648438 0 5.195313-1.050782 7.070313-2.925782l25.949219-25.949218c16.195312 9.332031 33.445312 16.480468 51.449218 21.332031v36.675781c0 5.523438 4.480469 10 10 10h93.113282c5.523437 0 10-4.476562 10-10v-36.675781c18-4.851563 35.25-12.003907 51.449218-21.335938l25.949219 25.953125c1.875 1.875 4.421875 2.925782 7.074219 2.925782s5.195312-1.050782 7.070312-2.925782l65.839844-65.84375c1.875-1.875 2.929688-4.417968 2.929688-7.070312s-1.054688-5.195313-2.929688-7.070313l-25.949219-25.949219c9.328125-16.195312 16.476563-33.441406 21.332031-51.453124h36.679688c5.523438 0 10-4.476563 10-10v-93.113282c0-5.519531-4.476562-10-10-10zm-10 93.117188h-34.488281c-4.65625 0-8.699219 3.214844-9.742188 7.753906-4.890625 21.246094-13.253906 41.410156-24.851562 59.9375-2.472657 3.949219-1.886719 9.082031 1.40625 12.378906l24.402343 24.398438-51.699218 51.699218-24.402344-24.402343c-3.296875-3.292969-8.429688-3.875-12.378906-1.402344-18.535156 11.605469-38.703125 19.964844-59.933594 24.851563-4.539062 1.042968-7.757812 5.085937-7.757812 9.742187v34.484375h-73.109376v-34.484375c0-4.660156-3.21875-8.699219-7.757812-9.746094-21.238281-4.882812-41.40625-13.246093-59.9375-24.847656-3.949219-2.476563-9.085938-1.890625-12.378906 1.402344l-24.398438 24.402343-51.699218-51.699218 24.40625-24.40625c3.292968-3.292969 3.875-8.425782 1.40625-12.375-11.601563-18.535156-19.960938-38.699219-24.847657-59.933594-1.042969-4.539062-5.085937-7.753906-9.746093-7.753906h-34.492188v-73.113282h34.484375c4.660156 0 8.703125-3.21875 9.746094-7.757812 4.890625-21.242188 13.25-41.40625 24.847656-59.933594 2.472656-3.949218 1.890625-9.085937-1.402344-12.378906l-24.402343-24.402344 51.699218-51.699218 24.402344 24.402343c3.292969 3.292969 8.425781 3.878907 12.375 1.40625 18.542969-11.605469 38.707031-19.96875 59.933594-24.851562 4.542968-1.046875 7.757812-5.085938 7.757812-9.746094v-34.484375h73.113282v34.484375c0 4.660156 3.21875 8.699219 7.757812 9.746094 21.234375 4.882812 41.402344 13.246093 59.9375 24.847656 3.949219 2.472656 9.082031 1.890625 12.375-1.402344l24.402344-24.402343 51.699218 51.699218-24.40625 24.40625c-3.292968 3.292969-3.878906 8.425782-1.40625 12.375 11.601563 18.535156 19.957032 38.699219 24.84375 59.933594 1.046876 4.539062 5.085938 7.757812 9.746094 7.757812h34.496094zm0 0"/><path d="m315.175781 301.035156c14.761719-17.960937 22.785157-40.277344 22.785157-63.832031 0-55.558594-45.199219-100.757813-100.757813-100.757813-38.628906 0-74.34375 22.539063-90.984375 57.425782-2.375 4.984375-.265625 10.953125 4.722656 13.332031 4.980469 2.375 10.953125.265625 13.328125-4.722656 13.34375-27.964844 41.96875-46.035157 72.933594-46.035157 44.53125 0 80.757813 36.226563 80.757813 80.757813 0 21.570313-8.398438 41.851563-23.652344 57.105469s-35.535156 23.652344-57.105469 23.652344c-30.964844 0-59.589844-18.070313-72.933594-46.035157-2.375-4.984375-8.34375-7.097656-13.328125-4.722656-4.984375 2.378906-7.097656 8.347656-4.722656 13.332031 16.640625 34.886719 52.355469 57.425782 90.984375 57.425782 23.550781 0 45.867187-8.023438 63.832031-22.785157l57.449219 57.449219c1.953125 1.953125 4.511719 2.929688 7.070313 2.929688 2.558593 0 5.117187-.976563 7.070312-2.929688 3.90625-3.902344 3.90625-10.234375 0-14.140625zm0 0"/><path d="m156.445312 237.203125c0-5.507813-4.492187-10-10-10-5.507812 0-10 4.492187-10 10s4.492188 10 10 10c5.507813 0 10-4.492187 10-10zm0 0"/></g></svg>